<svg xmlns="http://www.w3.org/2000/svg" width="850" height="248" viewBox="0 0 850 248" fill="none" role="img" aria-label="Stack: JavaScript, TypeScript, Node.js, React Native, Electron, Cloudflare Workers, R2, Pages, Ollama, Edge Impulse, Arduino"><title>Stack: JavaScript, TypeScript, Node.js, React Native, Electron, Cloudflare Workers, R2, Pages, Ollama, Edge Impulse, Arduino</title><style>text{font-family:-apple-system,BlinkMacSystemFont,'Segoe UI','Noto Sans',Helvetica,Arial,sans-serif}.d{font-family:'Iowan Old Style','Palatino Linotype',Palatino,'Book Antiqua',Georgia,serif}.p{font-family:'Iowan Old Style','Palatino Linotype',Palatino,'Book Antiqua',Georgia,serif}.m{font-family:ui-monospace,SFMono-Regular,'SF Mono',Menlo,Consolas,'Liberation Mono',monospace}.fg{fill:#1c1a17}.mu{fill:#6b645a}.ac{fill:#94601c}.ac2{fill:#7a6a55}
.up{animation:up .9s cubic-bezier(.2,.8,.2,1) both}.fade{animation:fade 1s ease both}.pop{animation:fade .2s linear both}
.draw{stroke-dasharray:1;stroke-dashoffset:0;animation:draw 1.4s cubic-bezier(.65,0,.35,1) both}
.pulse{animation:pulse 2.4s ease-in-out infinite}.blink{animation:blink 1s steps(1) infinite}
.ring{transform-box:fill-box;transform-origin:center;animation:ring 2.4s ease-out infinite}
@keyframes up{from{opacity:0;transform:translateY(14px)}to{opacity:1;transform:none}}
@keyframes fade{from{opacity:0}to{opacity:1}}
@keyframes draw{from{stroke-dashoffset:1}to{stroke-dashoffset:0}}
@keyframes pulse{0%,100%{opacity:.35}50%{opacity:1}}
@keyframes blink{0%{opacity:1}50%{opacity:0}}
@keyframes ring{0%{transform:scale(1);opacity:.9}100%{transform:scale(3.6);opacity:0}}
@media (prefers-reduced-motion:reduce){*{animation:none!important}}.slide{animation:slide .8s cubic-bezier(.2,.8,.2,1) both}@keyframes slide{from{opacity:0;transform:translateX(-12px)}to{opacity:1;transform:none}}.glow{opacity:0;animation:glow 4.95s ease-in-out infinite}@keyframes glow{0%{opacity:0}6%{opacity:1}18%,100%{opacity:0}}</style><text x="0" y="21" font-size="16" class="d fg up" style="animation-delay:0.05s">Lenguaje &amp; runtime</text><text x="0" y="38" font-size="11" class="m mu up" style="animation-delay:0.10s">Language &amp; runtime</text><g class="slide" style="animation-delay:0.25s"><path d="M212 6H339A2 2 0 0 1 341 8V42A2 2 0 0 1 339 44H212A2 2 0 0 1 210 42V8A2 2 0 0 1 212 6Z" fill="#faf8f4" stroke="#ddd6cb"/><rect x="218" y="14" width="24" height="22" rx="2" fill="#94601c" fill-opacity=".14"/><text x="230" y="29" font-size="10" font-weight="700" text-anchor="middle" class="m ac">JS</text><text x="250" y="30" font-size="14" class="fg">JavaScript</text></g>
   <path d="M212 6H339A2 2 0 0 1 341 8V42A2 2 0 0 1 339 44H212A2 2 0 0 1 210 42V8A2 2 0 0 1 212 6Z" stroke="#94601c" class="glow" style="animation-delay:2.00s"/><g class="slide" style="animation-delay:0.32s"><path d="M353 6H480A2 2 0 0 1 482 8V42A2 2 0 0 1 480 44H353A2 2 0 0 1 351 42V8A2 2 0 0 1 353 6Z" fill="#faf8f4" stroke="#ddd6cb"/><rect x="359" y="14" width="24" height="22" rx="2" fill="#94601c" fill-opacity=".14"/><text x="371" y="29" font-size="10" font-weight="700" text-anchor="middle" class="m ac">TS</text><text x="391" y="30" font-size="14" class="fg">TypeScript</text></g>
   <path d="M353 6H480A2 2 0 0 1 482 8V42A2 2 0 0 1 480 44H353A2 2 0 0 1 351 42V8A2 2 0 0 1 353 6Z" stroke="#94601c" class="glow" style="animation-delay:2.45s"/><g class="slide" style="animation-delay:0.39s"><path d="M494 6H598A2 2 0 0 1 600 8V42A2 2 0 0 1 598 44H494A2 2 0 0 1 492 42V8A2 2 0 0 1 494 6Z" fill="#faf8f4" stroke="#ddd6cb"/><rect x="500" y="14" width="24" height="22" rx="2" fill="#94601c" fill-opacity=".14"/><text x="512" y="29" font-size="10" font-weight="700" text-anchor="middle" class="m ac">N</text><text x="532" y="30" font-size="14" class="fg">Node.js</text></g>
   <path d="M494 6H598A2 2 0 0 1 600 8V42A2 2 0 0 1 598 44H494A2 2 0 0 1 492 42V8A2 2 0 0 1 494 6Z" stroke="#94601c" class="glow" style="animation-delay:2.90s"/><path d="M0 60H850" stroke="#ddd6cb" stroke-opacity=".6" pathLength="1" class="draw" style="animation-delay:0.20s"/><text x="0" y="85" font-size="16" class="d fg up" style="animation-delay:0.15s">Apps</text><text x="0" y="102" font-size="11" class="m mu up" style="animation-delay:0.20s">Mobile &amp; desktop</text><g class="slide" style="animation-delay:0.46s"><path d="M212 70H354A2 2 0 0 1 356 72V106A2 2 0 0 1 354 108H212A2 2 0 0 1 210 106V72A2 2 0 0 1 212 70Z" fill="#faf8f4" stroke="#ddd6cb"/><rect x="218" y="78" width="24" height="22" rx="2" fill="#94601c" fill-opacity=".14"/><text x="230" y="93" font-size="10" font-weight="700" text-anchor="middle" class="m ac">RN</text><text x="250" y="94" font-size="14" class="fg">React Native</text></g>
   <path d="M212 70H354A2 2 0 0 1 356 72V106A2 2 0 0 1 354 108H212A2 2 0 0 1 210 106V72A2 2 0 0 1 212 70Z" stroke="#94601c" class="glow" style="animation-delay:3.35s"/><g class="slide" style="animation-delay:0.53s"><path d="M368 70H480A2 2 0 0 1 482 72V106A2 2 0 0 1 480 108H368A2 2 0 0 1 366 106V72A2 2 0 0 1 368 70Z" fill="#faf8f4" stroke="#ddd6cb"/><rect x="374" y="78" width="24" height="22" rx="2" fill="#94601c" fill-opacity=".14"/><text x="386" y="93" font-size="10" font-weight="700" text-anchor="middle" class="m ac">E</text><text x="406" y="94" font-size="14" class="fg">Electron</text></g>
   <path d="M368 70H480A2 2 0 0 1 482 72V106A2 2 0 0 1 480 108H368A2 2 0 0 1 366 106V72A2 2 0 0 1 368 70Z" stroke="#94601c" class="glow" style="animation-delay:3.80s"/><path d="M0 124H850" stroke="#ddd6cb" stroke-opacity=".6" pathLength="1" class="draw" style="animation-delay:0.32s"/><text x="0" y="149" font-size="16" class="d fg up" style="animation-delay:0.25s">Edge cloud</text><text x="0" y="166" font-size="11" class="m mu up" style="animation-delay:0.30s">Cloudflare</text><g class="slide" style="animation-delay:0.60s"><path d="M212 134H316A2 2 0 0 1 318 136V170A2 2 0 0 1 316 172H212A2 2 0 0 1 210 170V136A2 2 0 0 1 212 134Z" fill="#faf8f4" stroke="#ddd6cb"/><rect x="218" y="142" width="24" height="22" rx="2" fill="#94601c" fill-opacity=".14"/><text x="230" y="157" font-size="10" font-weight="700" text-anchor="middle" class="m ac">W</text><text x="250" y="158" font-size="14" class="fg">Workers</text></g>
   <path d="M212 134H316A2 2 0 0 1 318 136V170A2 2 0 0 1 316 172H212A2 2 0 0 1 210 170V136A2 2 0 0 1 212 134Z" stroke="#94601c" class="glow" style="animation-delay:4.25s"/><g class="slide" style="animation-delay:0.67s"><path d="M330 134H457A2 2 0 0 1 459 136V170A2 2 0 0 1 457 172H330A2 2 0 0 1 328 170V136A2 2 0 0 1 330 134Z" fill="#faf8f4" stroke="#ddd6cb"/><rect x="336" y="142" width="24" height="22" rx="2" fill="#94601c" fill-opacity=".14"/><text x="348" y="157" font-size="10" font-weight="700" text-anchor="middle" class="m ac">R2</text><text x="368" y="158" font-size="14" class="fg">R2 Storage</text></g>
   <path d="M330 134H457A2 2 0 0 1 459 136V170A2 2 0 0 1 457 172H330A2 2 0 0 1 328 170V136A2 2 0 0 1 330 134Z" stroke="#94601c" class="glow" style="animation-delay:4.70s"/><g class="slide" style="animation-delay:0.74s"><path d="M471 134H560A2 2 0 0 1 562 136V170A2 2 0 0 1 560 172H471A2 2 0 0 1 469 170V136A2 2 0 0 1 471 134Z" fill="#faf8f4" stroke="#ddd6cb"/><rect x="477" y="142" width="24" height="22" rx="2" fill="#94601c" fill-opacity=".14"/><text x="489" y="157" font-size="10" font-weight="700" text-anchor="middle" class="m ac">P</text><text x="509" y="158" font-size="14" class="fg">Pages</text></g>
   <path d="M471 134H560A2 2 0 0 1 562 136V170A2 2 0 0 1 560 172H471A2 2 0 0 1 469 170V136A2 2 0 0 1 471 134Z" stroke="#94601c" class="glow" style="animation-delay:5.15s"/><path d="M0 188H850" stroke="#ddd6cb" stroke-opacity=".6" pathLength="1" class="draw" style="animation-delay:0.44s"/><text x="0" y="213" font-size="16" class="d fg up" style="animation-delay:0.35s">IA &amp; hardware</text><text x="0" y="230" font-size="11" class="m mu up" style="animation-delay:0.40s">AI &amp; hardware</text><g class="slide" style="animation-delay:0.81s"><path d="M212 198H308A2 2 0 0 1 310 200V234A2 2 0 0 1 308 236H212A2 2 0 0 1 210 234V200A2 2 0 0 1 212 198Z" fill="#faf8f4" stroke="#ddd6cb"/><rect x="218" y="206" width="24" height="22" rx="2" fill="#94601c" fill-opacity=".14"/><text x="230" y="221" font-size="10" font-weight="700" text-anchor="middle" class="m ac">O</text><text x="250" y="222" font-size="14" class="fg">Ollama</text></g>
   <path d="M212 198H308A2 2 0 0 1 310 200V234A2 2 0 0 1 308 236H212A2 2 0 0 1 210 234V200A2 2 0 0 1 212 198Z" stroke="#94601c" class="glow" style="animation-delay:5.60s"/><g class="slide" style="animation-delay:0.88s"><path d="M322 198H464A2 2 0 0 1 466 200V234A2 2 0 0 1 464 236H322A2 2 0 0 1 320 234V200A2 2 0 0 1 322 198Z" fill="#faf8f4" stroke="#ddd6cb"/><rect x="328" y="206" width="24" height="22" rx="2" fill="#94601c" fill-opacity=".14"/><text x="340" y="221" font-size="10" font-weight="700" text-anchor="middle" class="m ac">EI</text><text x="360" y="222" font-size="14" class="fg">Edge Impulse</text></g>
   <path d="M322 198H464A2 2 0 0 1 466 200V234A2 2 0 0 1 464 236H322A2 2 0 0 1 320 234V200A2 2 0 0 1 322 198Z" stroke="#94601c" class="glow" style="animation-delay:6.05s"/><g class="slide" style="animation-delay:0.95s"><path d="M478 198H582A2 2 0 0 1 584 200V234A2 2 0 0 1 582 236H478A2 2 0 0 1 476 234V200A2 2 0 0 1 478 198Z" fill="#faf8f4" stroke="#ddd6cb"/><rect x="484" y="206" width="24" height="22" rx="2" fill="#94601c" fill-opacity=".14"/><text x="496" y="221" font-size="10" font-weight="700" text-anchor="middle" class="m ac">A</text><text x="516" y="222" font-size="14" class="fg">Arduino</text></g>
   <path d="M478 198H582A2 2 0 0 1 584 200V234A2 2 0 0 1 582 236H478A2 2 0 0 1 476 234V200A2 2 0 0 1 478 198Z" stroke="#94601c" class="glow" style="animation-delay:6.50s"/></svg>